<svg xmlns="http://www.w3.org/2000/svg" width="41.411" height="30.575" viewBox="0 0 41.411 30.575"><defs><style>.a{fill:#146ab2;}</style></defs><g transform="translate(0 -25.905)"><path class="a" d="M0,39.918H10.044c-.172,7.32-2.248,8.151-4.856,8.388l-1.006.125V56.48l1.159-.062c3.405-.192,7.17-.805,9.681-3.906,2.2-2.718,3.172-7.159,3.172-13.975V25.905H0Z"/><path class="a" d="M111,25.905V39.918h9.91c-.172,7.32-2.181,8.151-4.788,8.388l-.939.125V56.48l1.092-.062c3.405-.192,7.2-.805,9.715-3.906,2.2-2.718,3.206-7.159,3.206-13.975V25.905Z" transform="translate(-87.785)"/></g></svg>